<?xml version="1.0" encoding="UTF-8" standalone="no"?>
<!DOCTYPE svg PUBLIC "-//W3C//DTD SVG 1.1//EN" "http://www.w3.org/Graphics/SVG/1.1/DTD/svg11.dtd">
<!-- Created with Vectornator (http://vectornator.io/) -->
<svg height="841.0mm" stroke-miterlimit="10" style="fill-rule:nonzero;clip-rule:evenodd;stroke-linecap:round;stroke-linejoin:round;" version="1.1" viewBox="0 0 2384.24 2384.24" width="841.0mm" xml:space="preserve" xmlns="http://www.w3.org/2000/svg" xmlns:vectornator="http://vectornator.io" xmlns:xlink="http://www.w3.org/1999/xlink">
<defs/>
<g id="Layer-2" vectornator:layerName="Layer 2">
<path d="M1350.18 747.191L1800.98 747.191C1890.31 747.191 1962.73 819.606 1962.73 908.934L1962.73 2121.84C1962.73 2211.17 1890.31 2283.59 1800.98 2283.59L548.224 2283.59C458.896 2283.59 386.482 2211.17 386.482 2121.84L386.482 908.934C386.482 819.606 458.896 747.191 548.224 747.191L986.229 747.191" fill="none" opacity="1" stroke="#29272a" stroke-linecap="butt" stroke-linejoin="round" stroke-width="173.143" vectornator:layerName="Rectangle 1"/>
</g>
<g id="Layer-3" vectornator:layerName="Layer 3">
<path d="M1170.88 118.416C1138.39 118.416 1112.09 144.725 1112.09 177.207L1112.09 1515.52L799.021 1218.94C787.565 1208.09 772.446 1202.44 756.984 1202.86C741.525 1203.28 726.706 1209.77 715.853 1221.23L710.716 1226.66C688.416 1250.21 689.452 1287.43 713.032 1309.77L1122.63 1697.77C1124.27 1699.32 1125.93 1700.72 1127.7 1702.04C1127.71 1702.05 1127.72 1702.06 1127.73 1702.07L1131.83 1706.4C1154.21 1730.03 1191.41 1731.06 1215 1708.72L1636.18 1309.77C1659.76 1287.43 1660.8 1250.21 1638.46 1226.63L1633.26 1221.16C1622.44 1209.75 1607.69 1203.28 1592.23 1202.86C1576.76 1202.44 1561.64 1208.09 1550.19 1218.94L1237.12 1515.52L1237.12 177.207C1237.12 144.724 1210.81 118.416 1178.33 118.416C1177.4 118.416 1171.81 118.416 1170.88 118.416Z" fill="#29272a" fill-rule="nonzero" opacity="0.997683" stroke="#29272a" stroke-linecap="butt" stroke-linejoin="round" stroke-width="44.1811" vectornator:layerName="Curve 1"/>
</g>
</svg>
