<?xml version="1.0" encoding="UTF-8" standalone="no"?>
<!DOCTYPE svg PUBLIC "-//W3C//DTD SVG 1.1//EN" "http://www.w3.org/Graphics/SVG/1.1/DTD/svg11.dtd">
<!-- Created with Vectornator (http://vectornator.io/) -->
<svg height="841.0mm" stroke-miterlimit="10" style="fill-rule:nonzero;clip-rule:evenodd;stroke-linecap:round;stroke-linejoin:round;" version="1.1" viewBox="0 0 2384.24 2384.24" width="841.0mm" xml:space="preserve" xmlns="http://www.w3.org/2000/svg" xmlns:vectornator="http://vectornator.io" xmlns:xlink="http://www.w3.org/1999/xlink">
<defs/>
<g id="Layer-1" vectornator:layerName="Layer 1">
<path d="M1311.92 158.059L1311.92 850.065L1311.92 865.48L1322.61 865.48L1919.26 865.48L1919.26 850.065L1322.61 850.065L1322.61 158.059L1311.92 158.059ZM532.838 112.416C482.101 112.416 440.997 153.566 440.997 204.304L440.997 2153.44C440.997 2204.18 482.101 2245.28 532.838 2245.28L1890.14 2245.28C1940.88 2245.28 1982.03 2204.18 1982.03 2153.44L1982.03 749.799L1424.45 112.416L532.838 112.416ZM1311.92 158.059L1322.61 158.059L1322.61 850.065L1919.26 850.065L1919.26 865.48L1322.61 865.48L1311.92 865.48L1311.92 850.065L1311.92 158.059ZM1311.93 158.078L1322.63 158.078L1322.63 865.501L1311.93 865.501L1311.93 158.078ZM1311.93 850.069L1919.26 850.069L1919.26 865.501L1311.93 865.501L1311.93 850.069Z" fill="none" opacity="0.918605" stroke="#29272a" stroke-linecap="butt" stroke-linejoin="round" stroke-width="153.844" vectornator:layerName="Curve 1"/>
</g>
</svg>
