<?xml version="1.0" encoding="UTF-8" standalone="no"?>
<!DOCTYPE svg PUBLIC "-//W3C//DTD SVG 1.1//EN" "http://www.w3.org/Graphics/SVG/1.1/DTD/svg11.dtd">
<!-- Created with Vectornator (http://vectornator.io/) -->
<svg height="841.0mm" stroke-miterlimit="10" style="fill-rule:nonzero;clip-rule:evenodd;stroke-linecap:round;stroke-linejoin:round;" version="1.1" viewBox="0 0 2384.24 2384.24" width="841.0mm" xml:space="preserve" xmlns="http://www.w3.org/2000/svg" xmlns:vectornator="http://vectornator.io" xmlns:xlink="http://www.w3.org/1999/xlink">
<defs/>
<g id="Layer-3" vectornator:layerName="Layer 3">
<path d="M631.158 869.569C631.158 744.082 731.849 642.354 856.057 642.354C980.265 642.354 1080.96 744.082 1080.96 869.569C1080.96 995.057 980.265 1096.78 856.057 1096.78C731.849 1096.78 631.158 995.057 631.158 869.569Z" fill="#29272a" fill-rule="nonzero" opacity="0.996124" stroke="none" vectornator:layerName="Oval 11"/>
<path d="M1665.71 906.075C1670.77 920.033 1672.74 925.494 1675.82 933.991C1673.77 936.401 1671.73 938.783 1667.65 943.58C1663.99 943.04 1657.54 945.912 1656.69 941.974C1654.86 933.53 1658.78 918.864 1659.81 907.303C1565.88 1026.51 1473.4 1146.45 1378 1264.92C1276.08 1391.48 1171.62 1516.04 1068.42 1641.62C1067.98 1645.33 1065.51 1651.35 1067.1 1652.76C1079.06 1663.43 1094.27 1670.05 1108.24 1678.22C1121.79 1715.98 1211.48 1745.16 1320.33 1745.16C1354.12 1745.16 1385.91 1742.27 1414.33 1737.27C1415.75 1739.92 1417.23 1742.55 1418.77 1745.16L1320.33 1745.16L1212.73 1745.16L963.516 1745.16C966.191 1734.14 967.625 1722.47 967.625 1710.34C967.625 1644.69 925.42 1591.45 873.344 1591.45C821.268 1591.45 779.063 1644.69 779.063 1710.34C779.063 1722.47 780.545 1734.14 783.22 1745.16L763.429 1745.16C774.053 1715.93 779.063 1683.07 779.063 1647.33C779.063 1510.59 711.557 1399.77 628.289 1399.77C614.481 1399.77 601.175 1403.04 588.47 1408.75C611.682 1377.53 634.743 1346.31 658.047 1315.08C660.008 1312.46 662.862 1310.79 663.385 1311.35C784.466 1440.44 900.824 1575.22 1022.46 1703.64C1025.29 1706.62 1027.96 1710.61 1036.68 1705.38C1043.11 1701.53 1053.85 1688.25 1062.43 1679.69C929.432 1534.03 798.498 1385.88 663.432 1242.72C658.333 1237.31 649.535 1235.88 635.658 1242.34C196.005 1704 664.773 1214.79 180.222 1715.48C169.62 1726.44 210.17 1816.33 212.858 1818.65C223.18 1827.58 235.52 1834.06 247.765 1840.62C261.768 1871.96 306.79 1894.94 360.326 1894.94C390.959 1894.94 418.755 1887.35 439.633 1875.05C454.655 1881.33 478.512 1884.35 514.595 1883.65C599.198 1882 660.424 1862.73 702.496 1830.13L702.496 1893.43L1694 1893.43C1706.12 1894.38 1718.43 1894.94 1730.89 1894.94C1743.36 1894.94 1755.62 1894.38 1767.74 1893.43L2132.58 1893.43L2132.58 1859.18C2143.7 1861.33 2164.49 1851.69 2177.26 1851.81C2175.65 1687.24 2177.73 1518.66 2172.45 1358.07C2172.3 1353.62 2161.26 1362.3 2161.01 1357.97C2160.78 1353.88 2173.23 1337.13 2171.12 1335.2C2007.65 1186.07 1834.18 1049.11 1665.71 906.075ZM1630.99 1055.72C1631.86 1055.57 1632.61 1055.66 1633.07 1056.05C1783.56 1183.14 1927.88 1317.7 2078.21 1444.98C2081.07 1447.4 2087.73 1445.02 2092.48 1445.03C2106.64 1427.13 2106.61 1427.11 2120.77 1409.22C2121.84 1518.85 2114.53 1637.67 2117.56 1745.16L2042.97 1745.16C2060.72 1715.14 2070.61 1682.09 2070.61 1647.33C2070.61 1556.77 2003.68 1477.8 1904.1 1434.63C1908.41 1424.97 1910.95 1413.23 1910.95 1400.58C1910.95 1367.53 1893.73 1340.78 1872.5 1340.78C1851.28 1340.78 1834.05 1367.53 1834.05 1400.58C1834.05 1404.35 1834.38 1408.05 1834.81 1411.63C1811.2 1406.1 1786.49 1402.5 1760.94 1400.86C1763.12 1381.57 1764.43 1361.54 1764.43 1340.78C1764.43 1202.31 1712.9 1090.06 1649.37 1090.06C1585.83 1090.06 1534.35 1202.31 1534.35 1340.78C1534.35 1376.33 1537.77 1410.09 1543.89 1440.73C1540.13 1442.54 1536.54 1444.48 1532.89 1446.4C1531.94 1439.43 1530.56 1432.62 1528.68 1426.08C1517.78 1343.91 1492.36 1286.27 1462.74 1286.27C1444.97 1286.27 1428.73 1307.11 1416.21 1341.44C1402.97 1343.04 1390.45 1347.59 1379.09 1354.33C1439.85 1280.4 1500.31 1206.82 1621.55 1059.31C1624.43 1058.49 1628.39 1056.16 1630.99 1055.72ZM1330.15 1413.85C1323.9 1429.77 1320.33 1447.42 1320.33 1466.09C1320.33 1522.05 1351.6 1569.43 1394.82 1585.55C1395.18 1589.19 1395.48 1592.94 1395.9 1596.51C1372.37 1593.31 1346.99 1591.45 1320.33 1591.45C1258.61 1591.45 1203.14 1600.92 1164.08 1615.92C1231.74 1533.59 1287.79 1465.39 1330.15 1413.85ZM493.576 1536.52C483.37 1569.89 477.516 1607.44 477.516 1647.33C477.516 1692.34 460.651 1733.12 444.829 1768.25C423.503 1754.05 393.563 1745.16 360.326 1745.16C352.679 1745.16 345.222 1745.63 337.984 1746.53C389.802 1676.53 441.713 1606.52 493.576 1536.52Z" fill="#29272a" fill-rule="nonzero" opacity="1" stroke="#29272a" stroke-linecap="butt" stroke-linejoin="round" stroke-width="134.086" vectornator:layerName="Curve 1"/>
<path d="M130.506 603.861C130.506 508.395 207.897 431.005 303.362 431.005L2080.87 431.005C2176.34 431.005 2253.73 508.395 2253.73 603.861L2253.73 1780.37C2253.73 1875.84 2176.34 1953.23 2080.87 1953.23L303.362 1953.23C207.897 1953.23 130.506 1875.84 130.506 1780.37L130.506 603.861Z" fill="none" opacity="1" stroke="#29272a" stroke-linecap="butt" stroke-linejoin="round" stroke-width="131.016" vectornator:layerName="Rectangle 3"/>
</g>
</svg>
