<?xml version="1.0" encoding="UTF-8" standalone="no"?>
<!DOCTYPE svg PUBLIC "-//W3C//DTD SVG 1.1//EN" "http://www.w3.org/Graphics/SVG/1.1/DTD/svg11.dtd">
<!-- Created with Vectornator (http://vectornator.io/) -->
<svg height="1189.0mm" stroke-miterlimit="10" style="fill-rule:nonzero;clip-rule:evenodd;stroke-linecap:round;stroke-linejoin:round;" version="1.1" viewBox="0 0 3370.82 3370.82" width="1189.0mm" xml:space="preserve" xmlns="http://www.w3.org/2000/svg" xmlns:vectornator="http://vectornator.io" xmlns:xlink="http://www.w3.org/1999/xlink">
<defs/>
<g id="Layer-3" vectornator:layerName="Layer 3">
<path d="M307.625 336.937C178.393 336.937 73.6875 441.643 73.6875 570.875L73.6875 2359.94C73.6875 2489.17 178.392 2593.94 307.625 2593.94L1405.59 2593.94L1219.16 2852.25C1197.5 2882.26 1185.87 2918.36 1185.88 2955.38L1185.88 3033.88L1685.41 3033.88L2184.94 3033.88L2184.94 3029.19L2184.94 2956C2184.94 2915.46 2170.98 2876.12 2145.38 2844.69L1941.06 2593.94L3063.19 2593.94C3192.42 2593.94 3297.12 2489.17 3297.13 2359.94L3297.13 570.875C3297.12 441.643 3192.42 336.937 3063.19 336.937L307.625 336.937ZM227.844 547.5L3142.97 547.5L3142.97 2111.53L227.844 2111.53L227.844 547.5Z" fill="#29272a" fill-rule="nonzero" opacity="0.915317" stroke="#29272a" stroke-linecap="butt" stroke-linejoin="round" stroke-width="62.8491" vectornator:layerName="Curve 1"/>
</g>
</svg>
