<?xml version="1.0" encoding="UTF-8" standalone="no"?>
<!DOCTYPE svg PUBLIC "-//W3C//DTD SVG 1.1//EN" "http://www.w3.org/Graphics/SVG/1.1/DTD/svg11.dtd">
<!-- Created with Vectornator (http://vectornator.io/) -->
<svg height="841.0mm" stroke-miterlimit="10" style="fill-rule:nonzero;clip-rule:evenodd;stroke-linecap:round;stroke-linejoin:round;" version="1.1" viewBox="0 0 2384.24 2384.24" width="841.0mm" xml:space="preserve" xmlns="http://www.w3.org/2000/svg" xmlns:vectornator="http://vectornator.io" xmlns:xlink="http://www.w3.org/1999/xlink">
<defs/>
<g id="Layer-2" vectornator:layerName="Layer 2">
<path d="M1855.56 21.75C1850.82 21.9714 1846.01 23.1111 1841.31 25.3125L1145.76 351.556C1132.53 357.762 1124.09 371.071 1124.13 385.686L1124.38 504.594C1124.28 505.628 1124.06 506.627 1124.06 507.687L1124.06 1603.94C1124.06 1810.53 987.421 1794.61 904.938 1817.09C848.75 1832.41 754.756 1843.3 674.031 1932.5C631.924 1979.03 546.994 2084.78 620.969 2220.03C696.508 2358.14 845.86 2370.56 1015.78 2334.59C1185.7 2298.63 1265.66 2142.36 1265.66 2004.84C1265.66 2004.81 1265.66 2004.78 1265.66 2004.75L1265.66 885.188L1863.28 605.625C1881.6 597.606 1892.08 570.007 1891.97 544.125L1894.91 59.5937C1895.04 37.1306 1876.09 20.7905 1855.56 21.75Z" fill="#29272a" fill-rule="nonzero" opacity="0.924419" stroke="none" vectornator:layerName="Curve 1"/>
</g>
</svg>
