<?xml version="1.0" encoding="UTF-8" standalone="no"?>
<!-- Created with Vectornator (http://vectornator.io/) -->

<svg
   height="16.0px"
   stroke-miterlimit="10"
   style="fill-rule:nonzero;clip-rule:evenodd;stroke-linecap:round;stroke-linejoin:round;"
   version="1.1"
   viewBox="0 0 16 16"
   width="16.0px"
   xml:space="preserve"
   id="svg4"
   sodipodi:docname="window-restore-symbolic.svg"
   inkscape:version="1.4.2 (ebf0e940d0, 2025-05-08)"
   xmlns:inkscape="http://www.inkscape.org/namespaces/inkscape"
   xmlns:sodipodi="http://sodipodi.sourceforge.net/DTD/sodipodi-0.dtd"
   xmlns="http://www.w3.org/2000/svg"
   xmlns:svg="http://www.w3.org/2000/svg"
   xmlns:vectornator="http://vectornator.io"><sodipodi:namedview
   id="namedview4"
   pagecolor="#ffffff"
   bordercolor="#000000"
   borderopacity="0.25"
   inkscape:showpageshadow="2"
   inkscape:pageopacity="0.0"
   inkscape:pagecheckerboard="0"
   inkscape:deskcolor="#d1d1d1"
   inkscape:zoom="52"
   inkscape:cx="7.9903846"
   inkscape:cy="8"
   inkscape:window-width="2560"
   inkscape:window-height="1046"
   inkscape:window-x="0"
   inkscape:window-y="0"
   inkscape:window-maximized="1"
   inkscape:current-layer="svg4" />
<defs
   id="defs1" />
<g
   id="Layer-2"
   vectornator:layerName="Layer 2">
<path
   d="m 9.0516208,9.7287481 c -0.2134,-0.1895 -0.2327,-0.5161 -0.0432,-0.7294 l 0.0526,-0.0592 c 0.1895,-0.2133 0.5161,-0.2326 0.7294,-0.0431 L 13.01767,11.764088 c 0.21333,0.18951 0.23263,0.51608 0.04311,0.72941 l -0.05257,0.05918 c -0.18952,0.21332 -0.51609,0.23262 -0.72941,0.04311 z"
   fill="#363636"
   fill-rule="nonzero"
   opacity="1"
   stroke="none"
   vectornator:layerName="Rectangle 1"
   id="path1" />
<path
   d="m 12.3175,8.5342481 c 0,0.2982 -0.24169,0.5399 -0.53984,0.5399 H 8.6457208 c -0.2982,0 -0.5399,-0.2417 -0.5399,-0.5399 v 0 c 0,-0.2981 0.2417,-0.5398 0.5399,-0.5398 H 11.77766 c 0.29815,0 0.53984,0.2417 0.53984,0.5398 z"
   fill="#363636"
   fill-rule="nonzero"
   opacity="1"
   stroke="none"
   vectornator:layerName="Rectangle 2"
   id="path2" />
<path
   d="m 9.2248208,11.600498 c 0,0.29077 -0.2358,0.52649 -0.5265,0.52649 h -0.066 c -0.2908,0 -0.5265,-0.23572 -0.5265,-0.52649 V 8.5209481 c 0,-0.2908 0.2357,-0.5265 0.5265,-0.5265 h 0.066 c 0.2907,0 0.5265,0.2357 0.5265,0.5265 z"
   fill="#363636"
   fill-rule="nonzero"
   opacity="1"
   stroke="none"
   vectornator:layerName="Rectangle 3"
   id="path3" />
<path
   d="m 3.5192015,3.1809729 c -0.21332,-0.18952 -0.56023,-0.14517 -0.74975,0.06816 l -0.04345,0.04808 c -0.19253,0.21303 -0.17442,0.54219 0.04032,0.73282 l 3.03622,2.69521 h -1.80622 c -0.29815,0 -0.54528,0.24713 -0.54528,0.54528 1e-5,0.29815 0.24713,0.51119 0.54528,0.51119 h 3.13532 c 0.29815,0 0.54527,-0.21304 0.54527,-0.51119 v -3.06717 c 0,-0.29077 -0.22042,-0.54527 -0.51119,-0.54527 h -0.08695 c -0.29077,0 -0.52648,0.23572 -0.52648,0.52649 v 1.72276 z"
   fill="#363636"
   fill-rule="nonzero"
   opacity="1"
   stroke="none"
   vectornator:layerName="Curve 1"
   id="path4" />
</g>
</svg>
