<?xml version="1.0" encoding="UTF-8" standalone="no"?>
<svg
   style="clip-rule:evenodd;fill-rule:evenodd;stroke-linejoin:round;stroke-miterlimit:2"
   viewBox="0 0 48 48"
   version="1.1"
   id="svg3"
   sodipodi:docname="folder-templates.svg"
   xml:space="preserve"
   inkscape:version="1.4.2 (ebf0e940d0, 2025-05-08)"
   xmlns:inkscape="http://www.inkscape.org/namespaces/inkscape"
   xmlns:sodipodi="http://sodipodi.sourceforge.net/DTD/sodipodi-0.dtd"
   xmlns="http://www.w3.org/2000/svg"
   xmlns:svg="http://www.w3.org/2000/svg"><sodipodi:namedview
     id="namedview3"
     pagecolor="#ffffff"
     bordercolor="#000000"
     borderopacity="0.25"
     inkscape:showpageshadow="2"
     inkscape:pageopacity="0.0"
     inkscape:pagecheckerboard="0"
     inkscape:deskcolor="#d1d1d1"
     inkscape:zoom="12.227055"
     inkscape:cx="56.023304"
     inkscape:cy="31.242193"
     inkscape:window-width="2560"
     inkscape:window-height="1044"
     inkscape:window-x="0"
     inkscape:window-y="0"
     inkscape:window-maximized="1"
     inkscape:current-layer="svg3" /><g
     transform="scale(.75)"
     id="g2"><path
       d="m61.122 15.88c0-2.762-2.239-5-5-5h-48.244c-2.761 0-5 2.238-5 5v32.246c0 2.761 2.239 5 5 5h48.244c2.761 0 5-2.239 5-5v-32.246z"
       style="fill:rgb(0,131,213)"
       id="path1" /><path
       d="m61.122 20.652c0-1.326-0.527-2.598-1.465-3.536-0.938-0.937-2.209-1.464-3.535-1.464h-25.58c-1.232 0-2.42-0.455-3.337-1.277-0.768-0.689-1.713-1.535-2.481-2.224-0.917-0.822-2.105-1.277-3.337-1.277h-13.509c-1.326 0-2.597 0.527-3.535 1.465-0.938 0.937-1.465 2.209-1.465 3.535v32.252c0 2.761 2.239 5 5 5h48.244c2.761 0 5-2.239 5-5v-27.474z"
       style="fill:url(#_Linear1)"
       id="path2" /></g><defs
     id="defs3"><linearGradient
       id="_Linear1"
       x2="1"
       gradientTransform="matrix(2.54933e-15,-41.6338,41.6338,2.54933e-15,445.153,52.7218)"
       gradientUnits="userSpaceOnUse"><stop
         style="stop-color:rgb(16,117,246)"
         offset="0"
         id="stop2" /><stop
         style="stop-color:rgb(18,197,255)"
         offset="1"
         id="stop3" /></linearGradient><linearGradient
       id="b"
       x1="26.655001"
       x2="26.655001"
       y1="17.999001"
       y2="49.215"
       gradientTransform="matrix(1.011,0,0,0.99098,-480.76,-156.3)"
       gradientUnits="userSpaceOnUse"><stop
         offset="0"
         stop-color="#3ab8fb"
         id="stop1" /><stop
         offset="1"
         stop-color="#60c4fb"
         id="stop2-3" /></linearGradient><linearGradient
       id="a"
       x1="11.572"
       x2="11.572"
       y1="17.999001"
       y2="8.9960003"
       gradientTransform="translate(-61.219,-1.442)"
       gradientUnits="userSpaceOnUse"><stop
         offset="0"
         stop-color="#009ef8"
         id="stop3-6" /><stop
         offset="1"
         stop-color="#27affa"
         id="stop4" /></linearGradient><filter
       style="color-interpolation-filters:sRGB;"
       inkscape:label="Drop Shadow"
       id="filter69"
       x="-0.053519276"
       y="-0.059564668"
       width="1.1404881"
       height="1.1811759"><feFlood
         result="flood"
         in="SourceGraphic"
         flood-opacity="0.239216"
         flood-color="rgb(0,0,0)"
         id="feFlood68" /><feGaussianBlur
         result="blur"
         in="SourceGraphic"
         stdDeviation="0.200000"
         id="feGaussianBlur68" /><feOffset
         result="offset"
         in="blur"
         dx="0.300000"
         dy="0.500000"
         id="feOffset68" /><feComposite
         result="comp1"
         operator="in"
         in="flood"
         in2="offset"
         id="feComposite68" /><feComposite
         result="fbSourceGraphic"
         operator="over"
         in="SourceGraphic"
         in2="comp1"
         id="feComposite69" /><feColorMatrix
         result="fbSourceGraphicAlpha"
         in="fbSourceGraphic"
         values="0 0 0 -1 0 0 0 0 -1 0 0 0 0 -1 0 0 0 0 1 0"
         id="feColorMatrix69" /><feFlood
         id="feFlood69"
         result="flood"
         in="fbSourceGraphic"
         flood-opacity="0.239216"
         flood-color="rgb(0,0,0)" /><feGaussianBlur
         id="feGaussianBlur69"
         result="blur"
         in="fbSourceGraphic"
         stdDeviation="0.200000" /><feOffset
         id="feOffset69"
         result="offset"
         in="blur"
         dx="0.300000"
         dy="0.500000" /><feComposite
         id="feComposite70"
         result="comp1"
         operator="in"
         in="flood"
         in2="offset" /><feComposite
         id="feComposite71"
         result="comp2"
         operator="over"
         in="fbSourceGraphic"
         in2="comp1" /></filter></defs><path
     d="m 22.186176,15.508505 a 1.1198901,1.1198901 0 0 0 -0.937498,1.67947 l 1.143968,1.980053 -3.661712,6.331211 h -2.851162 a 1.1198901,1.1198901 0 1 0 0,2.239049 h 10.178234 c 0.491,-0.91561 -0.140808,-2.23978 -1.265805,-2.23978 h -3.474213 l 4.80349,-8.31345 a 1.1198901,1.1198901 0 1 0 -1.93555,-1.116973 c 0,0 -0.248054,0.860894 -0.496108,0.860894 -0.248053,0 -0.499755,-0.860894 -0.499755,-0.860894 a 1.1235381,1.1235381 0 0 0 -1.00097,-0.55958 z m 3.151743,4.282577 c -0.661719,0.545719 -1.331465,2.169741 -0.393967,3.791575 l 4.135933,7.169485 a 1.1206197,1.1206197 0 0 0 1.940657,-1.119888 l -1.094356,-1.893966 h 1.621835 a 1.1198903,1.1198903 0 1 0 0,-2.23978 H 28.62974 l -3.294739,-5.707426 z m -7.27965,8.300317 a 1.0068068,1.0068068 0 0 0 -0.833169,0.49611 l -0.804716,1.395667 a 1.0476627,1.0476627 0 0 0 0.424609,1.419743 1.0476627,1.0476627 0 0 0 1.442361,-0.344357 l 0.804716,-1.393478 a 1.0476627,1.0476627 0 0 0 -0.424611,-1.422661 1.1162424,1.1162424 0 0 0 -0.606272,-0.151024 z"
     opacity=".15"
     id="path8"
     style="opacity:0.542896;fill:#39373a;fill-opacity:1;stroke:none;stroke-width:0.1;stroke-linecap:square;stroke-linejoin:round;stroke-dasharray:none;stroke-opacity:1;paint-order:stroke fill markers;filter:url(#filter69)" /></svg>
