<?xml version="1.0" encoding="UTF-8" standalone="no"?>
<!DOCTYPE svg PUBLIC "-//W3C//DTD SVG 1.1//EN" "http://www.w3.org/Graphics/SVG/1.1/DTD/svg11.dtd">
<!-- Created with Vectornator (http://vectornator.io/) -->
<svg height="841.0mm" stroke-miterlimit="10" style="fill-rule:nonzero;clip-rule:evenodd;stroke-linecap:round;stroke-linejoin:round;" version="1.1" viewBox="0 0 2384.24 2384.24" width="841.0mm" xml:space="preserve" xmlns="http://www.w3.org/2000/svg" xmlns:xlink="http://www.w3.org/1999/xlink">
<defs>
<linearGradient gradientTransform="matrix(-1064.11 2648.65 -2612.17 -1064.11 2095.67 -72.1081)" gradientUnits="userSpaceOnUse" id="LinearGradient" x1="0" x2="1" y1="0" y2="0">
<stop offset="0.0520833" stop-color="#4aceef"/>
<stop offset="1" stop-color="#038dff"/>
</linearGradient>
</defs>
<g id="Layer-1">
<path d="M1197.45 62.0094C1144 62.0094 1100.67 105.34 1100.67 158.786L1100.67 592.517L1294.93 592.517L1294.93 158.786C1294.93 105.34 1251.6 62.0094 1198.16 62.0094L1197.45 62.0094ZM1294.93 592.517L1294.93 1345.31C1294.93 1349.35 1294.61 1353.3 1294.13 1357.21L1574.9 1121.17C1592.8 1106.13 1614.57 1098.66 1636.26 1098.47C1664.14 1098.22 1691.93 1109.97 1711.27 1132.98C1745.66 1173.89 1740.34 1234.96 1699.43 1269.35L1272.97 1627.8C1251.01 1646.26 1223.27 1653.17 1196.94 1649.39C1171.98 1651.81 1146.08 1644.61 1125.36 1627.19L684.77 1256.84C643.857 1222.45 638.573 1161.38 672.963 1120.47C692.307 1097.45 720.091 1085.74 747.976 1085.99C769.664 1086.18 791.399 1093.62 809.298 1108.66L1101.11 1353.95C1100.86 1351.1 1100.67 1348.23 1100.67 1345.31L1100.67 592.517L522.029 592.517C374.353 592.517 254.638 712.232 254.638 859.908L254.638 2054.83C254.639 2202.51 374.354 2322.23 522.029 2322.23L1862.21 2322.23C2009.88 2322.23 2129.6 2202.51 2129.6 2054.83L2129.6 859.908C2129.6 712.232 2009.88 592.517 1862.21 592.517L1294.93 592.517Z" fill="url(#LinearGradient)" fill-rule="nonzero" opacity="1" stroke="none"/>
</g>
</svg>
