<?xml version="1.0" encoding="UTF-8" standalone="no"?>
<svg
   width="64"
   height="64"
   version="1.1"
   id="svg8"
   sodipodi:docname="default-folder.svg"
   inkscape:version="1.4.2 (ebf0e940d0, 2025-05-08)"
   xmlns:inkscape="http://www.inkscape.org/namespaces/inkscape"
   xmlns:sodipodi="http://sodipodi.sourceforge.net/DTD/sodipodi-0.dtd"
   xmlns="http://www.w3.org/2000/svg"
   xmlns:svg="http://www.w3.org/2000/svg">
  <sodipodi:namedview
     id="namedview8"
     pagecolor="#ffffff"
     bordercolor="#000000"
     borderopacity="0.25"
     inkscape:showpageshadow="2"
     inkscape:pageopacity="0.0"
     inkscape:pagecheckerboard="true"
     inkscape:deskcolor="#d1d1d1"
     inkscape:zoom="13.796875"
     inkscape:cx="44.03171"
     inkscape:cy="32.797282"
     inkscape:window-width="2695"
     inkscape:window-height="1137"
     inkscape:window-x="0"
     inkscape:window-y="0"
     inkscape:window-maximized="1"
     inkscape:current-layer="svg8" />
  <defs
     id="defs4">
    <linearGradient
       id="c"
       x1="445.28"
       x2="445.28"
       y1="179.28"
       y2="200.07"
       gradientTransform="matrix(1.422564,0,0,1.3943942,-603.3581,-230.91895)"
       gradientUnits="userSpaceOnUse">
      <stop
         offset="0"
         stop-color="#3ab8fb"
         id="stop1" />
      <stop
         offset="1"
         stop-color="#60c4fb"
         id="stop2" />
    </linearGradient>
    <linearGradient
       id="b"
       x1="19.307"
       x2="19.307"
       y1="24.991"
       y2="15.954"
       gradientUnits="userSpaceOnUse"
       gradientTransform="matrix(1.4070861,0,0,1.4070861,-13.029199,-13.017595)">
      <stop
         offset="0"
         stop-color="#009ef8"
         id="stop3" />
      <stop
         offset="1"
         stop-color="#27affa"
         id="stop4" />
    </linearGradient>
  </defs>
  <path
     fill="url(#b)"
     d="m 9.1591418,9.4324631 h 9.8411602 c 2.742411,0 2.859199,0.1041244 5.631158,2.2991789 2.854978,2.155656 3.461432,1.985398 6.806076,1.985398 H 54.85567 c 2.330134,-0.01829 4.20578,1.915044 4.20578,4.245179 v 32.354538 a 4.1931165,4.1931165 0 0 1 -4.20578,4.207187 H 9.161956 A 4.1931165,4.1931165 0 0 1 4.9561757,50.316757 V 13.636836 A 4.1931165,4.1931165 0 0 1 9.161956,9.431056 Z"
     id="path5"
     style="fill:url(#b);stroke-width:1.40709" />
  <rect
     width="54.108086"
     height="35.177151"
     x="4.949141"
     y="19.345385"
     fill="url(#c)"
     rx="4.2057805"
     ry="4.1213551"
     id="rect6"
     style="fill:url(#c);stroke-width:1.40709" />
  <path
     fill="#ffffff"
     d="m 9.1591418,19.345385 c -2.3301345,0 -4.2071874,1.837654 -4.2071874,4.122762 v 0.858322 c 0,-2.224603 1.8770529,-4.014416 4.2071874,-4.014416 H 54.852856 c 2.330134,0 4.207187,1.789813 4.207187,4.013009 V 23.46674 c 0,-2.283701 -1.877053,-4.121355 -4.207187,-4.121355 z"
     opacity="0.15"
     id="path6"
     style="stroke-width:1.40709" />
  <path
     d="m 9.1549206,18.921852 a 4.6293132,4.6293132 0 0 0 -4.1987449,2.645322 v 1.795441 c 0.056283,-2.234452 1.9051946,-4.01723 4.1987449,-4.01723 H 54.852856 c 2.330134,0 4.204373,1.839061 4.204373,4.122762 v 26.931628 c 0,-0.02814 0.0056,-0.05347 0.0056,-0.08161 V 21.591094 A 4.6293132,4.6293132 0 0 0 54.852856,18.921852 Z M 59.057229,50.399775"
     color="#000000"
     opacity="0.08"
     id="path7"
     style="stroke-width:1.40709" />
  <path
     d="M 9.1605489,9.4324631 A 4.1973378,4.1973378 0 0 0 4.9561757,13.636836 v 36.679921 a 4.1973378,4.1973378 0 0 0 4.2071874,4.20578 H 54.85567 a 4.1973378,4.1973378 0 0 0 4.207187,-4.20578 V 17.962219 c 0,-2.328727 -1.877053,-4.263471 -4.207187,-4.245179 H 31.437536 c -3.344644,0 -3.951098,0.168851 -6.804668,-1.986805 C 21.860908,9.5351804 21.74412,9.4324631 19.001709,9.4324631 Z m 0,0.4207188 h 9.8411601 c 1.364874,0 2.006505,0.028142 2.641101,0.2940811 0.634595,0.264532 1.34236,0.817517 2.729747,1.915044 l 0.0056,0.0056 c 1.442263,1.090492 2.368126,1.627999 3.374192,1.874239 1.006067,0.24624 2.020576,0.196992 3.686566,0.196992 H 54.86127 c 2.095151,-0.01548 3.778026,1.720866 3.778026,3.823053 V 50.316757 A 3.7653624,3.7653624 0 0 1 54.85567,54.099004 H 9.1633631 A 3.7653624,3.7653624 0 0 1 5.3783015,50.316757 V 13.636836 A 3.7667695,3.7667695 0 0 1 9.1605489,9.8517748 Z"
     color="#000000"
     opacity="0.1"
     style="stroke-width:1.40709;paint-order:stroke fill markers"
     id="path8" />
</svg>
