<?xml version="1.0" encoding="UTF-8" standalone="no"?>
<svg
   version="1.1"
   viewBox="0 0 1024 1024"
   xml:space="preserve"
   id="svg15"
   sodipodi:docname="Files_(iOS).svg"
   inkscape:version="1.4.2 (ebf0e940d0, 2025-05-08)"
   xmlns:inkscape="http://www.inkscape.org/namespaces/inkscape"
   xmlns:sodipodi="http://sodipodi.sourceforge.net/DTD/sodipodi-0.dtd"
   xmlns:xlink="http://www.w3.org/1999/xlink"
   xmlns="http://www.w3.org/2000/svg"
   xmlns:svg="http://www.w3.org/2000/svg"><sodipodi:namedview
     id="namedview15"
     pagecolor="#ffffff"
     bordercolor="#000000"
     borderopacity="0.25"
     inkscape:showpageshadow="2"
     inkscape:pageopacity="0.0"
     inkscape:pagecheckerboard="true"
     inkscape:deskcolor="#d1d1d1"
     inkscape:zoom="0.81054688"
     inkscape:cx="512"
     inkscape:cy="512"
     inkscape:window-width="2560"
     inkscape:window-height="1044"
     inkscape:window-x="0"
     inkscape:window-y="0"
     inkscape:window-maximized="1"
     inkscape:current-layer="svg15" /><defs
     id="defs12"><linearGradient
       id="c"><stop
         offset="0"
         stop-color="#fff"
         id="stop1" /><stop
         offset=".31614786"
         stop-color="#fff"
         id="stop2" /><stop
         offset=".54669261"
         stop-color="#f9fcff"
         id="stop3" /><stop
         offset=".80836576"
         stop-color="#d9effe"
         id="stop4" /><stop
         offset="1"
         stop-color="#b4e0fd"
         id="stop5" /></linearGradient><linearGradient
       id="a"><stop
         offset="0"
         stop-color="#19b1f8"
         id="stop6" /><stop
         offset=".25"
         stop-color="#19abf7"
         id="stop7" /><stop
         offset=".5"
         stop-color="#19a6f7"
         id="stop8" /><stop
         offset=".75"
         stop-color="#1aa0f6"
         id="stop9" /><stop
         offset="1"
         stop-color="#1a9ef6"
         id="stop10" /></linearGradient><linearGradient
       id="b"><stop
         offset="0"
         stop-color="#18c1fa"
         id="stop11" /><stop
         offset="1"
         stop-color="#1d75f2"
         id="stop12" /></linearGradient><linearGradient
       xlink:href="#a"
       id="d"
       x1="512"
       y1="216"
       x2="512"
       y2="809"
       gradientUnits="userSpaceOnUse"
       gradientTransform="matrix(0.53948189,0,0,0.33095755,-50.856096,-15.872378)" /><linearGradient
       xlink:href="#b"
       id="f"
       gradientUnits="userSpaceOnUse"
       x1="512"
       y1="216"
       x2="512"
       y2="809"
       gradientTransform="matrix(1.2827309,0,0,1.0145038,-145.99196,-4.4597588)" /><linearGradient
       xlink:href="#c"
       id="e"
       x1="512"
       y1="312"
       x2="512"
       y2="340"
       gradientUnits="userSpaceOnUse"
       gradientTransform="matrix(1.2827309,0,0,1.2827309,-145.99196,-221.45542)" /></defs><path
     d="m 111.3459,55.614458 c -13.085524,6.8e-5 -29.407229,0.14622 -39.215989,1.881506 -6.467081,1.104239 -12.982965,3.123589 -18.835093,6.085464 -11.770195,6.015303 -21.340504,15.675059 -27.338206,27.48351 -2.957518,5.881974 -4.773321,12.173342 -5.880028,18.667232 -1.535712,9.36273 -1.878993,17.96766 -1.878993,39.34377 V 251.87229 H 1003.3349 v -34.81161 c 0,-21.37612 -0.3432,-29.98104 -1.8789,-39.34376 -1.1068,-6.4939 -2.92261,-12.78527 -5.88011,-18.66725 -5.9977,-11.80845 -15.56798,-21.46821 -27.33818,-27.48351 -5.85213,-2.96186 -12.36801,-4.98121 -18.83509,-6.08545 -9.80876,-1.73529 -26.13047,-1.88145 -39.21599,-1.88151 H 397.72139 c -13.00394,0 -13.85773,-0.37782 -19.75425,-1.07711 -6.75393,-0.80097 -12.54729,-2.43553 -17.85251,-4.6835 -6.12444,-2.59509 -11.64174,-6.54206 -16.89354,-11.20896 -4.27985,-3.80321 -8.31181,-7.763805 -12.04901,-11.723369 -2.54419,-2.695569 -6.72452,-6.725249 -10.29104,-10.362686 -4.4296,-4.517665 -8.05158,-8.430258 -8.05158,-8.430258 -3.88494,-3.742017 -6.57998,-6.299424 -9.80077,-8.500364 -3.16599,-2.163476 -6.62044,-4.158515 -10.49076,-5.946567 -8.12302,-3.752746 -17.1502,-6.051928 -31.13553,-6.051928 z"
     fill="url(#d)"
     id="path13"
     style="fill:url(#d);stroke-width:1.28273" /><path
     d="m 95.877966,178.75663 c -5.14616,2e-5 -11.565322,0.0566 -15.42283,0.73907 -2.543315,0.43427 -5.106812,1.23026 -7.408269,2.3951 -4.628889,2.36564 -8.391663,6.16409 -10.75039,10.80801 -1.163117,2.31322 -1.877183,4.78678 -2.312425,7.34063 -0.603939,3.68211 -0.739068,7.06634 -0.739068,15.47294 v 91.51734 H 962.28755 v -91.51734 c 0,-8.4066 -0.13513,-11.79083 -0.73907,-15.47294 -0.43524,-2.55385 -1.14931,-5.02741 -2.31243,-7.34063 -2.35872,-4.64392 -6.1215,-8.44237 -10.75039,-10.80801 -2.30145,-1.16484 -4.86495,-1.96083 -7.40827,-2.3951 -3.8575,-0.68243 -10.27666,-0.73905 -15.42283,-0.73907 z"
     fill="url(#e)"
     id="path14"
     style="fill:url(#e);stroke-width:1.28273" /><path
     d="m 54.830575,214.67309 c -5.146165,4e-5 -11.565313,0.0566 -15.422821,0.73908 -2.543327,0.43427 -5.106823,1.23027 -7.408269,2.39509 -4.628889,2.36565 -8.391663,6.16409 -10.75039,10.80801 -1.163117,2.31322 -1.877194,4.78678 -2.312436,7.34064 -0.603929,3.68211 -0.739068,7.06633 -0.739068,15.47295 v 469.67742 c 0,21.76639 0.350152,30.52913 1.919082,40.0628 1.130667,6.61245 2.9863,13.0186 6.007799,19.00797 6.127489,12.02404 15.904558,21.85944 27.929447,27.98458 5.978756,3.01594 12.636458,5.07128 19.243477,6.19569 10.021011,1.76698 26.69662,1.91651 40.065294,1.91658 h 794.80714 c 13.36868,-7e-5 30.04429,-0.1496 40.0653,-1.91658 6.60702,-1.12441 13.26472,-3.17975 19.24348,-6.19569 12.02488,-6.12514 21.80198,-15.96055 27.92948,-27.98458 3.0215,-5.98937 4.87711,-12.39552 6.00781,-19.00797 1.5689,-9.53367 1.919,-18.29641 1.919,-40.0628 V 251.42886 c 0,-8.40662 -0.1351,-11.79084 -0.739,-15.47295 -0.4353,-2.55386 -1.1493,-5.02742 -2.3125,-7.34064 -2.35871,-4.64392 -6.12151,-8.44236 -10.75031,-10.80801 -2.30149,-1.16482 -4.86499,-1.96082 -7.40831,-2.39509 -3.85751,-0.68244 -10.27666,-0.73904 -15.42282,-0.73908 z"
     fill="url(#f)"
     id="path15"
     style="fill:url(#f);stroke-width:1.28273" /></svg>
